<svg width="257" height="125" viewBox="0 0 257 125" fill="none" xmlns="http://www.w3.org/2000/svg">
<path d="M168.383 80H163.338V54.793H180.986V59.8379H168.383V64.8828H175.941V69.9277H168.383V80ZM188.633 80H183.588V54.793H188.633V80ZM210.975 80H193.326V54.793H198.371V74.9551H210.975V80ZM232.789 77.4512C231.617 78.4473 230.311 79.2148 228.869 79.7539C227.428 80.2812 225.928 80.5449 224.369 80.5449C223.174 80.5449 222.02 80.3867 220.906 80.0703C219.805 79.7656 218.773 79.332 217.812 78.7695C216.852 78.1953 215.973 77.5156 215.176 76.7305C214.379 75.9336 213.699 75.0547 213.137 74.0938C212.574 73.1211 212.135 72.0781 211.818 70.9648C211.514 69.8516 211.361 68.6973 211.361 67.502C211.361 66.3066 211.514 65.1582 211.818 64.0566C212.135 62.9551 212.574 61.9238 213.137 60.9629C213.699 59.9902 214.379 59.1113 215.176 58.3262C215.973 57.5293 216.852 56.8496 217.812 56.2871C218.773 55.7246 219.805 55.291 220.906 54.9863C222.02 54.6699 223.174 54.5117 224.369 54.5117C225.928 54.5117 227.428 54.7812 228.869 55.3203C230.311 55.8477 231.617 56.6094 232.789 57.6055L230.152 62C229.391 61.2266 228.512 60.623 227.516 60.1895C226.52 59.7441 225.471 59.5215 224.369 59.5215C223.268 59.5215 222.23 59.7324 221.258 60.1543C220.297 60.5762 219.453 61.1504 218.727 61.877C218 62.5918 217.426 63.4355 217.004 64.4082C216.582 65.3691 216.371 66.4004 216.371 67.502C216.371 68.6152 216.582 69.6582 217.004 70.6309C217.426 71.6035 218 72.4531 218.727 73.1797C219.453 73.9062 220.297 74.4805 221.258 74.9023C222.23 75.3242 223.268 75.5352 224.369 75.5352C225.002 75.5352 225.617 75.459 226.215 75.3066C226.812 75.1543 227.381 74.9434 227.92 74.6738V67.502H232.789V77.4512ZM235.197 62.3516C235.197 61.3086 235.396 60.3301 235.795 59.416C236.193 58.502 236.732 57.7051 237.412 57.0254C238.104 56.334 238.906 55.7891 239.82 55.3906C240.734 54.9922 241.713 54.793 242.756 54.793H254.322V59.8379H242.756C242.404 59.8379 242.076 59.9023 241.771 60.0312C241.467 60.1602 241.197 60.3418 240.963 60.5762C240.74 60.7988 240.564 61.0625 240.436 61.3672C240.307 61.6719 240.242 62 240.242 62.3516C240.242 62.7031 240.307 63.0371 240.436 63.3535C240.564 63.6582 240.74 63.9277 240.963 64.1621C241.197 64.3848 241.467 64.5605 241.771 64.6895C242.076 64.8184 242.404 64.8828 242.756 64.8828H247.801C248.844 64.8828 249.822 65.082 250.736 65.4805C251.662 65.8672 252.465 66.4062 253.145 67.0977C253.836 67.7773 254.375 68.5801 254.762 69.5059C255.16 70.4199 255.359 71.3984 255.359 72.4414C255.359 73.4844 255.16 74.4629 254.762 75.377C254.375 76.291 253.836 77.0938 253.145 77.7852C252.465 78.4648 251.662 79.0039 250.736 79.4023C249.822 79.8008 248.844 80 247.801 80H236.604V74.9551H247.801C248.152 74.9551 248.48 74.8906 248.785 74.7617C249.09 74.6328 249.354 74.457 249.576 74.2344C249.811 74 249.992 73.7305 250.121 73.4258C250.25 73.1211 250.314 72.793 250.314 72.4414C250.314 72.0898 250.25 71.7617 250.121 71.457C249.992 71.1523 249.811 70.8887 249.576 70.666C249.354 70.4316 249.09 70.25 248.785 70.1211C248.48 69.9922 248.152 69.9277 247.801 69.9277H242.756C241.713 69.9277 240.734 69.7285 239.82 69.3301C238.906 68.9316 238.104 68.3926 237.412 67.7129C236.732 67.0215 236.193 66.2188 235.795 65.3047C235.396 64.3789 235.197 63.3945 235.197 62.3516Z" fill="#E68227"/>
<path d="M123.465 44.416C122.293 45.4238 120.98 46.1973 119.527 46.7363C118.074 47.2754 116.568 47.5449 115.01 47.5449C113.814 47.5449 112.66 47.3867 111.547 47.0703C110.445 46.7656 109.408 46.332 108.436 45.7695C107.475 45.1953 106.596 44.5098 105.799 43.7129C105.002 42.916 104.316 42.0371 103.742 41.0762C103.18 40.1035 102.74 39.0664 102.424 37.9648C102.119 36.8516 101.967 35.6973 101.967 34.502C101.967 33.3066 102.119 32.1523 102.424 31.0391C102.74 29.9258 103.18 28.8887 103.742 27.9277C104.316 26.9551 105.002 26.0703 105.799 25.2734C106.596 24.4766 107.475 23.7969 108.436 23.2344C109.408 22.6602 110.445 22.2207 111.547 21.916C112.66 21.5996 113.814 21.4414 115.01 21.4414C116.568 21.4414 118.074 21.7109 119.527 22.25C120.98 22.7773 122.293 23.5508 123.465 24.5703L120.793 28.9648C120.055 28.168 119.182 27.5586 118.174 27.1367C117.166 26.7031 116.111 26.4863 115.01 26.4863C113.896 26.4863 112.854 26.6973 111.881 27.1191C110.908 27.541 110.059 28.1152 109.332 28.8418C108.605 29.5566 108.031 30.4062 107.609 31.3906C107.188 32.3633 106.977 33.4004 106.977 34.502C106.977 35.6035 107.188 36.6406 107.609 37.6133C108.031 38.5742 108.605 39.418 109.332 40.1445C110.059 40.8711 110.908 41.4453 111.881 41.8672C112.854 42.2891 113.896 42.5 115.01 42.5C116.111 42.5 117.166 42.2891 118.174 41.8672C119.182 41.4336 120.055 40.8184 120.793 40.0215L123.465 44.416ZM146.281 36.9277C146.281 38.3223 146.018 39.6348 145.49 40.8652C144.963 42.084 144.242 43.1504 143.328 44.0645C142.414 44.9668 141.342 45.6816 140.111 46.209C138.893 46.7363 137.586 47 136.191 47C134.797 47 133.484 46.7363 132.254 46.209C131.035 45.6816 129.969 44.9668 129.055 44.0645C128.152 43.1504 127.438 42.084 126.91 40.8652C126.383 39.6348 126.119 38.3223 126.119 36.9277V21.793H131.146V36.9277C131.146 37.6191 131.275 38.2695 131.533 38.8789C131.803 39.4883 132.166 40.0215 132.623 40.4785C133.08 40.9355 133.613 41.2988 134.223 41.5684C134.844 41.8262 135.5 41.9551 136.191 41.9551C136.883 41.9551 137.533 41.8262 138.143 41.5684C138.764 41.2988 139.303 40.9355 139.76 40.4785C140.217 40.0215 140.574 39.4883 140.832 38.8789C141.102 38.2695 141.236 37.6191 141.236 36.9277V21.793H146.281V36.9277ZM155.703 26.8379V36.9277H160.748C161.439 36.9277 162.09 36.7988 162.699 36.541C163.309 36.2715 163.842 35.9082 164.299 35.4512C164.756 34.9941 165.113 34.4609 165.371 33.8516C165.641 33.2305 165.775 32.5742 165.775 31.8828C165.775 31.1914 165.641 30.541 165.371 29.9316C165.113 29.3105 164.756 28.7715 164.299 28.3145C163.842 27.8574 163.309 27.5 162.699 27.2422C162.09 26.9727 161.439 26.8379 160.748 26.8379H155.703ZM155.703 47H150.658V21.793H160.748C161.674 21.793 162.564 21.916 163.42 22.1621C164.275 22.3965 165.072 22.7363 165.811 23.1816C166.561 23.6152 167.24 24.1426 167.85 24.7637C168.471 25.373 168.998 26.0527 169.432 26.8027C169.877 27.5527 170.217 28.3555 170.451 29.2109C170.697 30.0664 170.82 30.957 170.82 31.8828C170.82 32.75 170.709 33.5938 170.486 34.4141C170.275 35.2344 169.965 36.0137 169.555 36.752C169.156 37.4902 168.664 38.1699 168.078 38.791C167.492 39.4121 166.836 39.9512 166.109 40.4082L168.904 47H163.543L161.346 41.9199L155.703 41.9551V47ZM172.666 29.3516C172.666 28.3086 172.865 27.3301 173.264 26.416C173.662 25.502 174.201 24.7051 174.881 24.0254C175.572 23.334 176.375 22.7891 177.289 22.3906C178.203 21.9922 179.182 21.793 180.225 21.793H191.791V26.8379H180.225C179.873 26.8379 179.545 26.9023 179.24 27.0312C178.936 27.1602 178.666 27.3418 178.432 27.5762C178.209 27.7988 178.033 28.0625 177.904 28.3672C177.775 28.6719 177.711 29 177.711 29.3516C177.711 29.7031 177.775 30.0371 177.904 30.3535C178.033 30.6582 178.209 30.9277 178.432 31.1621C178.666 31.3848 178.936 31.5605 179.24 31.6895C179.545 31.8184 179.873 31.8828 180.225 31.8828H185.27C186.312 31.8828 187.291 32.082 188.205 32.4805C189.131 32.8672 189.934 33.4062 190.613 34.0977C191.305 34.7773 191.844 35.5801 192.23 36.5059C192.629 37.4199 192.828 38.3984 192.828 39.4414C192.828 40.4844 192.629 41.4629 192.23 42.377C191.844 43.291 191.305 44.0938 190.613 44.7852C189.934 45.4648 189.131 46.0039 188.205 46.4023C187.291 46.8008 186.312 47 185.27 47H174.072V41.9551H185.27C185.621 41.9551 185.949 41.8906 186.254 41.7617C186.559 41.6328 186.822 41.457 187.045 41.2344C187.279 41 187.461 40.7305 187.59 40.4258C187.719 40.1211 187.783 39.793 187.783 39.4414C187.783 39.0898 187.719 38.7617 187.59 38.457C187.461 38.1523 187.279 37.8887 187.045 37.666C186.822 37.4316 186.559 37.25 186.254 37.1211C185.949 36.9922 185.621 36.9277 185.27 36.9277H180.225C179.182 36.9277 178.203 36.7285 177.289 36.3301C176.375 35.9316 175.572 35.3926 174.881 34.7129C174.201 34.0215 173.662 33.2188 173.264 32.3047C172.865 31.3789 172.666 30.3945 172.666 29.3516ZM220.848 34.502C220.848 35.6973 220.689 36.8516 220.373 37.9648C220.068 39.0664 219.635 40.1035 219.072 41.0762C218.51 42.0371 217.83 42.916 217.033 43.7129C216.236 44.5098 215.357 45.1953 214.396 45.7695C213.436 46.332 212.398 46.7656 211.285 47.0703C210.172 47.3867 209.018 47.5449 207.822 47.5449C206.627 47.5449 205.473 47.3867 204.359 47.0703C203.258 46.7656 202.221 46.332 201.248 45.7695C200.287 45.1953 199.408 44.5098 198.611 43.7129C197.814 42.916 197.129 42.0371 196.555 41.0762C195.992 40.1035 195.553 39.0664 195.236 37.9648C194.932 36.8516 194.779 35.6973 194.779 34.502C194.779 33.3066 194.932 32.1523 195.236 31.0391C195.553 29.9258 195.992 28.8887 196.555 27.9277C197.129 26.9668 197.814 26.0879 198.611 25.291C199.408 24.4941 200.287 23.8145 201.248 23.252C202.221 22.6895 203.258 22.2559 204.359 21.9512C205.473 21.6348 206.627 21.4766 207.822 21.4766C209.018 21.4766 210.172 21.6348 211.285 21.9512C212.398 22.2559 213.436 22.6895 214.396 23.252C215.357 23.8145 216.236 24.4941 217.033 25.291C217.83 26.0879 218.51 26.9668 219.072 27.9277C219.635 28.8887 220.068 29.9258 220.373 31.0391C220.689 32.1523 220.848 33.3066 220.848 34.502ZM215.838 34.502C215.838 33.4004 215.627 32.3633 215.205 31.3906C214.783 30.4062 214.209 29.5566 213.482 28.8418C212.768 28.1152 211.918 27.541 210.934 27.1191C209.961 26.6973 208.924 26.4863 207.822 26.4863C206.709 26.4863 205.666 26.6973 204.693 27.1191C203.721 27.541 202.871 28.1152 202.145 28.8418C201.418 29.5566 200.844 30.4062 200.422 31.3906C200 32.3633 199.789 33.4004 199.789 34.502C199.789 35.6035 200 36.6406 200.422 37.6133C200.844 38.5742 201.418 39.418 202.145 40.1445C202.871 40.8711 203.721 41.4453 204.693 41.8672C205.666 42.2891 206.709 42.5 207.822 42.5C208.924 42.5 209.961 42.2891 210.934 41.8672C211.918 41.4453 212.768 40.8711 213.482 40.1445C214.209 39.418 214.783 38.5742 215.205 37.6133C215.627 36.6406 215.838 35.6035 215.838 34.502ZM222.693 29.3516C222.693 28.3086 222.893 27.3301 223.291 26.416C223.689 25.502 224.229 24.7051 224.908 24.0254C225.6 23.334 226.402 22.7891 227.316 22.3906C228.23 21.9922 229.209 21.793 230.252 21.793H241.818V26.8379H230.252C229.9 26.8379 229.572 26.9023 229.268 27.0312C228.963 27.1602 228.693 27.3418 228.459 27.5762C228.236 27.7988 228.061 28.0625 227.932 28.3672C227.803 28.6719 227.738 29 227.738 29.3516C227.738 29.7031 227.803 30.0371 227.932 30.3535C228.061 30.6582 228.236 30.9277 228.459 31.1621C228.693 31.3848 228.963 31.5605 229.268 31.6895C229.572 31.8184 229.9 31.8828 230.252 31.8828H235.297C236.34 31.8828 237.318 32.082 238.232 32.4805C239.158 32.8672 239.961 33.4062 240.641 34.0977C241.332 34.7773 241.871 35.5801 242.258 36.5059C242.656 37.4199 242.855 38.3984 242.855 39.4414C242.855 40.4844 242.656 41.4629 242.258 42.377C241.871 43.291 241.332 44.0938 240.641 44.7852C239.961 45.4648 239.158 46.0039 238.232 46.4023C237.318 46.8008 236.34 47 235.297 47H224.1V41.9551H235.297C235.648 41.9551 235.977 41.8906 236.281 41.7617C236.586 41.6328 236.85 41.457 237.072 41.2344C237.307 41 237.488 40.7305 237.617 40.4258C237.746 40.1211 237.811 39.793 237.811 39.4414C237.811 39.0898 237.746 38.7617 237.617 38.457C237.488 38.1523 237.307 37.8887 237.072 37.666C236.85 37.4316 236.586 37.25 236.281 37.1211C235.977 36.9922 235.648 36.9277 235.297 36.9277H230.252C229.209 36.9277 228.23 36.7285 227.316 36.3301C226.402 35.9316 225.6 35.3926 224.908 34.7129C224.229 34.0215 223.689 33.2188 223.291 32.3047C222.893 31.3789 222.693 30.3945 222.693 29.3516Z" fill="#DDDDDD"/>
<path d="M26.7981 49.1337C26.4833 39.7344 34.7948 32.5107 43.5687 34.558L70.2422 40.7819C76.2758 42.1898 80.6204 47.6615 80.8368 54.1252L81.7937 82.7C82.1085 92.0993 73.797 99.323 65.0231 97.2757L38.3496 91.0518C32.3159 89.6439 27.9714 84.1722 27.755 77.7085L26.7981 49.1337Z" fill="#A3A3A3"/>
<path d="M28.4445 46.5503C28.1298 37.1509 36.4413 29.9272 45.2152 31.9745L71.8887 38.1984C77.9223 39.6063 82.2669 45.078 82.4833 51.5417L83.4402 80.1165C83.755 89.5158 75.4435 96.7395 66.6695 94.6922L39.9961 88.4683C33.9624 87.0604 29.6179 81.5887 29.4014 75.125L28.4445 46.5503Z" fill="#DDDDDD"/>
<path d="M32.5603 43.1054C32.2455 33.7061 40.557 26.4824 49.3309 28.5297L76.0044 34.7536C82.0381 36.1615 86.3826 41.6332 86.599 48.0969L87.5559 76.6717C87.8707 86.071 79.5592 93.2947 70.7853 91.2474L44.1118 85.0235C38.0782 83.6156 33.7336 78.1439 33.5172 71.6802L32.5603 43.1054Z" fill="#BE630F"/>
<path d="M34.2063 41.383C33.8915 31.9837 42.203 24.76 50.9769 26.8073L77.6504 33.0312C83.684 34.4391 88.0286 39.9108 88.245 46.3745L89.2019 74.9492C89.5167 84.3486 81.2052 91.5723 72.4313 89.525L45.7578 83.3011C39.7242 81.8932 35.3796 76.4215 35.1632 69.9578L34.2063 41.383Z" fill="#E58227"/>
</svg>
