<svg width="120" height="19" viewBox="0 0 120 19" fill="none" xmlns="http://www.w3.org/2000/svg">
<path d="M3.824 5.128V8.392C3.824 9.032 4.096 9.6 4.64 10.096C5.2 10.592 5.848 10.84 6.584 10.84C7.432 10.84 8.104 10.496 8.6 9.808C9.096 9.12 9.344 8.104 9.344 6.76C9.344 4.04 8.424 2.68 6.584 2.68C5.848 2.68 5.2 2.928 4.64 3.424C4.096 3.92 3.824 4.488 3.824 5.128ZM2.024 18.28C1.656 18.28 1.336 18.144 1.064 17.872C0.792 17.6 0.656 17.28 0.656 16.912V1.888C0.656 1.52 0.792 1.2 1.064 0.927999C1.336 0.655999 1.656 0.519999 2.024 0.519999H2.312C2.696 0.519999 3.024 0.655999 3.296 0.927999C3.568 1.184 3.712 1.504 3.728 1.888V2.056C3.728 2.072 3.736 2.08 3.752 2.08C3.768 2.08 3.784 2.072 3.8 2.056C4.376 1.416 4.952 0.96 5.528 0.688C6.104 0.415999 6.776 0.279999 7.544 0.279999C9.048 0.279999 10.248 0.847999 11.144 1.984C12.04 3.104 12.488 4.696 12.488 6.76C12.488 8.76 12.016 10.344 11.072 11.512C10.144 12.664 8.968 13.24 7.544 13.24C6.152 13.24 4.944 12.736 3.92 11.728C3.904 11.712 3.888 11.704 3.872 11.704C3.856 11.704 3.848 11.712 3.848 11.728V16.912C3.848 17.28 3.712 17.6 3.44 17.872C3.184 18.144 2.872 18.28 2.504 18.28H2.024ZM20.9501 7C18.6621 7 17.5181 7.704 17.5181 9.112C17.5181 9.624 17.6621 10.04 17.9501 10.36C18.2541 10.68 18.6381 10.84 19.1021 10.84C20.0141 10.84 20.7501 10.56 21.3101 10C21.8701 9.424 22.1501 8.64 22.1501 7.648V7.216C22.1501 7.072 22.0781 7 21.9341 7H20.9501ZM18.2381 13.24C17.1501 13.24 16.2461 12.888 15.5261 12.184C14.8221 11.464 14.4701 10.536 14.4701 9.4C14.4701 8.008 14.9981 6.928 16.0541 6.16C17.1261 5.392 18.7581 5.008 20.9501 5.008H21.9341C22.0781 5.008 22.1501 4.936 22.1501 4.792V4.6C22.1501 3.864 21.9741 3.352 21.6221 3.064C21.2701 2.76 20.6461 2.608 19.7501 2.608C18.8221 2.608 17.6861 2.776 16.3421 3.112C16.0541 3.192 15.7901 3.144 15.5501 2.968C15.3101 2.776 15.1901 2.528 15.1901 2.224C15.1901 1.856 15.3021 1.528 15.5261 1.24C15.7501 0.936 16.0381 0.752 16.3901 0.688C17.6061 0.415999 18.7501 0.279999 19.8221 0.279999C21.8701 0.279999 23.3021 0.647999 24.1181 1.384C24.9341 2.12 25.3421 3.408 25.3421 5.248V11.632C25.3421 12 25.2061 12.32 24.9341 12.592C24.6781 12.864 24.3661 13 23.9981 13H23.7341C23.3501 13 23.0221 12.872 22.7501 12.616C22.4781 12.344 22.3341 12.016 22.3181 11.632V11.296C22.3181 11.28 22.3101 11.272 22.2941 11.272C22.2621 11.272 22.2461 11.28 22.2461 11.296C21.2701 12.592 19.9341 13.24 18.2381 13.24ZM33.6112 2.68C31.8512 2.68 30.9712 3.96 30.9712 6.52C30.9712 7.848 31.2032 8.84 31.6672 9.496C32.1472 10.152 32.7952 10.48 33.6112 10.48C34.3312 10.48 34.9472 10.224 35.4592 9.712C35.9872 9.2 36.2512 8.6 36.2512 7.912V5.32C36.2512 4.584 35.9872 3.96 35.4592 3.448C34.9472 2.936 34.3312 2.68 33.6112 2.68ZM32.6032 12.88C31.1952 12.88 30.0432 12.32 29.1472 11.2C28.2512 10.064 27.8032 8.504 27.8032 6.52C27.8032 4.536 28.2272 3 29.0752 1.912C29.9392 0.823999 31.1152 0.279999 32.6032 0.279999C33.3552 0.279999 34.0192 0.415999 34.5952 0.688C35.1712 0.96 35.7392 1.416 36.2992 2.056C36.3152 2.072 36.3312 2.08 36.3472 2.08C36.3632 2.08 36.3712 2.072 36.3712 2.056V1.888C36.3872 1.504 36.5312 1.184 36.8032 0.927999C37.0752 0.655999 37.4032 0.519999 37.7872 0.519999H38.0512C38.4192 0.519999 38.7312 0.655999 38.9872 0.927999C39.2592 1.2 39.3952 1.52 39.3952 1.888V12.04C39.3952 16.36 37.2352 18.52 32.9152 18.52C32.1472 18.52 31.3392 18.456 30.4912 18.328C30.1072 18.264 29.7872 18.072 29.5312 17.752C29.2912 17.448 29.1712 17.096 29.1712 16.696C29.1712 16.376 29.2992 16.12 29.5552 15.928C29.8272 15.752 30.1232 15.704 30.4432 15.784C31.2112 15.976 32.0112 16.072 32.8432 16.072C34.0272 16.072 34.8912 15.76 35.4352 15.136C35.9792 14.528 36.2512 13.52 36.2512 12.112V11.368C36.2512 11.352 36.2432 11.344 36.2272 11.344C36.2112 11.344 36.1952 11.352 36.1792 11.368C35.2192 12.376 34.0272 12.88 32.6032 12.88Z" fill="#DDDDDD"/>
<path d="M46.9989 7.96C45.3189 7.592 44.1189 7.088 43.3989 6.448C42.6949 5.808 42.3429 4.976 42.3429 3.952C42.3429 2.8 42.7669 1.904 43.6149 1.264C44.4789 0.607999 45.7509 0.279999 47.4309 0.279999C48.4869 0.279999 49.5349 0.375999 50.5749 0.568C50.9269 0.632 51.2069 0.808 51.4149 1.096C51.6389 1.368 51.7509 1.688 51.7509 2.056C51.7509 2.36 51.6309 2.608 51.3909 2.8C51.1509 2.976 50.8789 3.024 50.5749 2.944C49.6789 2.72 48.7349 2.608 47.7429 2.608C46.3029 2.608 45.5829 3.008 45.5829 3.808C45.5829 4.192 45.7189 4.512 45.9909 4.768C46.2629 5.024 46.7269 5.224 47.3829 5.368C49.2229 5.736 50.4789 6.232 51.1509 6.856C51.8389 7.48 52.1829 8.392 52.1829 9.592C52.1829 10.744 51.7509 11.64 50.8869 12.28C50.0229 12.92 48.7669 13.24 47.1189 13.24C46.0469 13.24 44.9509 13.112 43.8309 12.856C43.4789 12.776 43.1909 12.592 42.9669 12.304C42.7429 12 42.6309 11.656 42.6309 11.272C42.6309 10.968 42.7509 10.736 42.9909 10.576C43.2469 10.416 43.5189 10.376 43.8069 10.456C44.8469 10.744 45.8309 10.888 46.7589 10.888C48.2149 10.888 48.9429 10.456 48.9429 9.592C48.9429 9.176 48.7989 8.848 48.5109 8.608C48.2389 8.368 47.7349 8.152 46.9989 7.96ZM60.2128 2.512C59.3968 2.512 58.7648 2.744 58.3168 3.208C57.8848 3.656 57.6128 4.384 57.5008 5.392C57.5008 5.52 57.5648 5.584 57.6928 5.584H62.3968C62.5248 5.584 62.5888 5.52 62.5888 5.392C62.5248 3.472 61.7328 2.512 60.2128 2.512ZM60.8128 13.24C58.7168 13.24 57.1008 12.696 55.9648 11.608C54.8448 10.504 54.2848 8.888 54.2848 6.76C54.2848 4.648 54.7888 3.04 55.7968 1.936C56.8048 0.831999 58.2608 0.279999 60.1648 0.279999C63.7168 0.279999 65.5408 2.296 65.6368 6.328C65.6528 6.712 65.5168 7.032 65.2288 7.288C64.9408 7.544 64.6048 7.672 64.2208 7.672H57.6688C57.5248 7.672 57.4688 7.744 57.5008 7.888C57.6128 8.96 57.9648 9.744 58.5568 10.24C59.1648 10.72 60.0448 10.96 61.1968 10.96C61.9168 10.96 62.7168 10.84 63.5968 10.6C63.8848 10.52 64.1488 10.568 64.3888 10.744C64.6448 10.92 64.7728 11.16 64.7728 11.464C64.7728 11.832 64.6608 12.16 64.4368 12.448C64.2288 12.72 63.9488 12.888 63.5968 12.952C62.7008 13.144 61.7728 13.24 60.8128 13.24ZM73.5487 2.68C71.7887 2.68 70.9087 3.96 70.9087 6.52C70.9087 7.848 71.1407 8.84 71.6047 9.496C72.0847 10.152 72.7327 10.48 73.5487 10.48C74.2687 10.48 74.8847 10.224 75.3967 9.712C75.9247 9.2 76.1887 8.6 76.1887 7.912V5.32C76.1887 4.584 75.9247 3.96 75.3967 3.448C74.8847 2.936 74.2687 2.68 73.5487 2.68ZM72.5407 12.88C71.1327 12.88 69.9807 12.32 69.0847 11.2C68.1887 10.064 67.7407 8.504 67.7407 6.52C67.7407 4.536 68.1647 3 69.0127 1.912C69.8767 0.823999 71.0527 0.279999 72.5407 0.279999C73.2927 0.279999 73.9567 0.415999 74.5327 0.688C75.1087 0.96 75.6767 1.416 76.2367 2.056C76.2527 2.072 76.2687 2.08 76.2847 2.08C76.3007 2.08 76.3087 2.072 76.3087 2.056V1.888C76.3247 1.504 76.4687 1.184 76.7407 0.927999C77.0127 0.655999 77.3407 0.519999 77.7247 0.519999H77.9887C78.3567 0.519999 78.6687 0.655999 78.9247 0.927999C79.1967 1.2 79.3327 1.52 79.3327 1.888V12.04C79.3327 16.36 77.1727 18.52 72.8527 18.52C72.0847 18.52 71.2767 18.456 70.4287 18.328C70.0447 18.264 69.7247 18.072 69.4687 17.752C69.2287 17.448 69.1087 17.096 69.1087 16.696C69.1087 16.376 69.2367 16.12 69.4927 15.928C69.7647 15.752 70.0607 15.704 70.3807 15.784C71.1487 15.976 71.9487 16.072 72.7807 16.072C73.9647 16.072 74.8287 15.76 75.3727 15.136C75.9167 14.528 76.1887 13.52 76.1887 12.112V11.368C76.1887 11.352 76.1807 11.344 76.1647 11.344C76.1487 11.344 76.1327 11.352 76.1167 11.368C75.1567 12.376 73.9647 12.88 72.5407 12.88ZM86.5524 13.24C85.1444 13.24 84.1204 12.856 83.4804 12.088C82.8404 11.304 82.5204 9.984 82.5204 8.128V1.888C82.5204 1.52 82.6564 1.2 82.9284 0.927999C83.2004 0.655999 83.5204 0.519999 83.8884 0.519999H84.2724C84.6404 0.519999 84.9604 0.655999 85.2324 0.927999C85.5044 1.2 85.6404 1.52 85.6404 1.888V7.792C85.6404 8.912 85.7924 9.688 86.0964 10.12C86.4004 10.552 86.9124 10.768 87.6324 10.768C88.2884 10.768 88.8964 10.488 89.4564 9.928C90.0324 9.368 90.3204 8.768 90.3204 8.128V1.888C90.3204 1.52 90.4564 1.2 90.7284 0.927999C91.0004 0.655999 91.3204 0.519999 91.6884 0.519999H92.1684C92.5364 0.519999 92.8484 0.655999 93.1044 0.927999C93.3764 1.2 93.5124 1.52 93.5124 1.888V11.632C93.5124 12 93.3764 12.32 93.1044 12.592C92.8484 12.864 92.5364 13 92.1684 13H91.8564C91.4724 13 91.1444 12.872 90.8724 12.616C90.6164 12.344 90.4804 12.016 90.4644 11.632L90.4404 11.464C90.4404 11.448 90.4324 11.44 90.4164 11.44C90.4004 11.44 90.3844 11.448 90.3684 11.464C89.2804 12.648 88.0084 13.24 86.5524 13.24ZM98.1881 13C97.8201 13 97.5001 12.864 97.2281 12.592C96.9561 12.32 96.8201 12 96.8201 11.632V1.888C96.8201 1.52 96.9561 1.2 97.2281 0.927999C97.5001 0.655999 97.8201 0.519999 98.1881 0.519999H98.6681C99.0361 0.519999 99.3561 0.655999 99.6281 0.927999C99.9001 1.2 100.036 1.52 100.036 1.888V2.896C100.036 2.912 100.044 2.92 100.06 2.92C100.092 2.92 100.108 2.912 100.108 2.896C100.572 2.256 101.18 1.736 101.932 1.336C102.684 0.919999 103.508 0.664 104.404 0.568C104.74 0.535999 105.028 0.647999 105.268 0.904C105.508 1.144 105.628 1.432 105.628 1.768C105.628 2.104 105.508 2.392 105.268 2.632C105.028 2.872 104.74 3.008 104.404 3.04C101.572 3.264 100.156 4.704 100.156 7.36V11.632C100.156 12 100.02 12.32 99.7481 12.592C99.4761 12.864 99.1561 13 98.7881 13H98.1881ZM115.344 3.616C114.88 2.944 114.176 2.608 113.232 2.608C112.288 2.608 111.576 2.944 111.096 3.616C110.632 4.272 110.4 5.32 110.4 6.76C110.4 8.2 110.632 9.256 111.096 9.928C111.576 10.584 112.288 10.912 113.232 10.912C114.176 10.912 114.88 10.584 115.344 9.928C115.824 9.256 116.064 8.2 116.064 6.76C116.064 5.32 115.824 4.272 115.344 3.616ZM117.696 11.56C116.64 12.68 115.152 13.24 113.232 13.24C111.312 13.24 109.816 12.68 108.744 11.56C107.688 10.424 107.16 8.824 107.16 6.76C107.16 4.696 107.688 3.104 108.744 1.984C109.816 0.847999 111.312 0.279999 113.232 0.279999C115.152 0.279999 116.64 0.847999 117.696 1.984C118.768 3.104 119.304 4.696 119.304 6.76C119.304 8.824 118.768 10.424 117.696 11.56Z" fill="#E58227"/>
</svg>
