<svg width="259" height="287" viewBox="0 0 259 287" fill="none" xmlns="http://www.w3.org/2000/svg">
<rect x="18" y="13" width="241" height="274" fill="#FF3F03"/>
<path d="M0 0H241V274H0V0Z" fill="#FFFEFE"/>
<path d="M116.217 76.5C119.817 61.3 104.717 52.5 96.7173 50C95.2173 51.5 91.7173 55.3 89.7173 58.5C111.717 63 112.717 73.5 116.217 76.5Z" fill="#9E4C00"/>
<path d="M117.718 72.5C115.218 69.5 112.818 61.5 123.218 53.5C126.218 56.5 128.218 67.5 117.718 72.5Z" fill="#67DC1F"/>
<rect x="79.2173" y="75.5" width="70" height="56" rx="28" stroke="#FF3F03" stroke-width="9"/>
<path d="M152.717 97C176.717 91 203.017 136.2 82.2171 97C41.7171 91 26.7171 126.5 82.2171 144C137.717 161.5 209.717 114.5 192.217 149.5" stroke="#FBBF26" stroke-width="11"/>
<path d="M83.4 207.368H87.628C88.4027 207.368 88.9907 207.494 89.392 207.746C89.7933 207.998 90.0593 208.339 90.19 208.768C90.3207 209.197 90.386 209.753 90.386 210.434C90.386 211.087 90.3207 211.633 90.19 212.072C90.0593 212.501 89.7887 212.847 89.378 213.108C88.9767 213.369 88.384 213.5 87.6 213.5H84.604V217H83.4V207.368ZM87.194 212.38C87.8007 212.38 88.244 212.319 88.524 212.198C88.804 212.067 88.986 211.871 89.07 211.61C89.154 211.349 89.196 210.957 89.196 210.434C89.196 209.911 89.154 209.519 89.07 209.258C88.9953 208.997 88.818 208.805 88.538 208.684C88.2673 208.553 87.8287 208.488 87.222 208.488H84.604V212.38H87.194ZM98.4829 217L97.4889 214.438H93.1489L92.1549 217H90.9369L94.5769 207.368H96.0889L99.7289 217H98.4829ZM95.3469 208.67H95.2769L93.5129 213.304H97.1109L95.3469 208.67ZM107.479 217L105.981 213.22H105.743H102.719V217H101.515V207.368H105.939C106.705 207.368 107.283 207.489 107.675 207.732C108.067 207.975 108.324 208.301 108.445 208.712C108.567 209.123 108.627 209.65 108.627 210.294C108.627 210.957 108.529 211.535 108.333 212.03C108.137 212.515 107.736 212.847 107.129 213.024L108.767 217H107.479ZM105.435 212.1C106.033 212.1 106.471 212.039 106.751 211.918C107.041 211.787 107.223 211.601 107.297 211.358C107.381 211.115 107.423 210.761 107.423 210.294C107.423 209.818 107.386 209.459 107.311 209.216C107.237 208.973 107.064 208.791 106.793 208.67C106.532 208.549 106.112 208.488 105.533 208.488H102.719V212.1H105.435ZM117.596 217L116.602 214.438H112.262L111.268 217H110.05L113.69 207.368H115.202L118.842 217H117.596ZM114.46 208.67H114.39L112.626 213.304H116.224L114.46 208.67ZM127.129 217.112C126.616 217.112 126.042 217.093 125.407 217.056C124.782 217.019 124.227 216.972 123.741 216.916V215.81C124.955 215.931 125.967 215.992 126.779 215.992C127.283 215.992 127.68 215.973 127.969 215.936C128.268 215.889 128.52 215.81 128.725 215.698C128.912 215.586 129.033 215.423 129.089 215.208C129.145 214.984 129.173 214.69 129.173 214.326C129.173 213.887 129.15 213.579 129.103 213.402C129.057 213.215 128.945 213.08 128.767 212.996C128.599 212.912 128.305 212.851 127.885 212.814L125.505 212.548C124.927 212.483 124.488 212.347 124.189 212.142C123.9 211.927 123.704 211.652 123.601 211.316C123.508 210.971 123.461 210.523 123.461 209.972C123.461 209.207 123.592 208.628 123.853 208.236C124.124 207.844 124.497 207.583 124.973 207.452C125.459 207.321 126.107 207.256 126.919 207.256C127.461 207.256 128.011 207.279 128.571 207.326C129.131 207.373 129.575 207.429 129.901 207.494V208.558C129.547 208.502 129.108 208.46 128.585 208.432C128.063 208.395 127.577 208.376 127.129 208.376C126.607 208.376 126.187 208.399 125.869 208.446C125.552 208.493 125.305 208.572 125.127 208.684C124.931 208.796 124.805 208.945 124.749 209.132C124.693 209.319 124.665 209.585 124.665 209.93C124.665 210.313 124.693 210.593 124.749 210.77C124.805 210.938 124.913 211.064 125.071 211.148C125.23 211.223 125.491 211.279 125.855 211.316L128.207 211.582C128.767 211.638 129.201 211.736 129.509 211.876C129.817 212.016 130.041 212.268 130.181 212.632C130.312 212.968 130.377 213.505 130.377 214.242C130.377 215.091 130.247 215.726 129.985 216.146C129.724 216.557 129.374 216.823 128.935 216.944C128.497 217.056 127.895 217.112 127.129 217.112ZM132.728 217V207.368H139V208.488H133.932V211.582H138.328V212.702H133.932V215.88H139V217H132.728ZM147.029 216.93C146.74 216.986 146.376 217.028 145.937 217.056C145.508 217.093 145.107 217.112 144.733 217.112C143.576 217.112 142.731 216.986 142.199 216.734C141.667 216.482 141.308 216.025 141.121 215.362C140.944 214.69 140.855 213.631 140.855 212.184C140.855 210.747 140.944 209.692 141.121 209.02C141.308 208.348 141.667 207.886 142.199 207.634C142.731 207.382 143.576 207.256 144.733 207.256C145.116 207.256 145.517 207.275 145.937 207.312C146.357 207.349 146.703 207.401 146.973 207.466V208.516C146.273 208.423 145.629 208.376 145.041 208.376C144.061 208.376 143.375 208.451 142.983 208.6C142.601 208.749 142.349 209.071 142.227 209.566C142.106 210.061 142.045 210.933 142.045 212.184C142.045 213.435 142.106 214.307 142.227 214.802C142.349 215.297 142.601 215.619 142.983 215.768C143.375 215.917 144.061 215.992 145.041 215.992C145.76 215.992 146.423 215.945 147.029 215.852V216.93ZM155.768 217L154.774 214.438H150.434L149.44 217H148.222L151.862 207.368H153.374L157.014 217H155.768ZM152.632 208.67H152.562L150.798 213.304H154.396L152.632 208.67Z" fill="black"/>
<path d="M69.9219 187.559V194.285H73.2852C73.7461 194.285 74.1797 194.199 74.5859 194.027C74.9922 193.848 75.3477 193.605 75.6523 193.301C75.957 192.996 76.1953 192.641 76.3672 192.234C76.5469 191.82 76.6367 191.383 76.6367 190.922C76.6367 190.461 76.5469 190.027 76.3672 189.621C76.1953 189.207 75.957 188.848 75.6523 188.543C75.3477 188.238 74.9922 188 74.5859 187.828C74.1797 187.648 73.7461 187.559 73.2852 187.559H69.9219ZM69.9219 201H66.5586V184.195H73.2852C73.9023 184.195 74.4961 184.277 75.0664 184.441C75.6367 184.598 76.168 184.824 76.6602 185.121C77.1602 185.41 77.6133 185.762 78.0195 186.176C78.4336 186.582 78.7852 187.035 79.0742 187.535C79.3711 188.035 79.5977 188.57 79.7539 189.141C79.918 189.711 80 190.305 80 190.922C80 191.5 79.9258 192.062 79.7773 192.609C79.6367 193.156 79.4297 193.676 79.1562 194.168C78.8906 194.66 78.5625 195.113 78.1719 195.527C77.7812 195.941 77.3438 196.301 76.8594 196.605L78.7227 201H75.1484L73.6836 197.613L69.9219 197.637V201ZM93.7344 201H82.2148V184.195H93.7344V187.559H85.5781V190.922H91.0977V194.285H85.5781V197.637H93.7344V201ZM109.086 199.277C108.305 199.949 107.43 200.465 106.461 200.824C105.492 201.184 104.488 201.363 103.449 201.363C102.652 201.363 101.883 201.258 101.141 201.047C100.406 200.844 99.7148 200.555 99.0664 200.18C98.4258 199.797 97.8398 199.34 97.3086 198.809C96.7773 198.277 96.3203 197.691 95.9375 197.051C95.5625 196.402 95.2695 195.711 95.0586 194.977C94.8555 194.234 94.7539 193.465 94.7539 192.668C94.7539 191.871 94.8555 191.102 95.0586 190.359C95.2695 189.617 95.5625 188.926 95.9375 188.285C96.3203 187.637 96.7773 187.047 97.3086 186.516C97.8398 185.984 98.4258 185.531 99.0664 185.156C99.7148 184.773 100.406 184.48 101.141 184.277C101.883 184.066 102.652 183.961 103.449 183.961C104.488 183.961 105.492 184.141 106.461 184.5C107.43 184.852 108.305 185.367 109.086 186.047L107.305 188.977C106.812 188.445 106.23 188.039 105.559 187.758C104.887 187.469 104.184 187.324 103.449 187.324C102.707 187.324 102.012 187.465 101.363 187.746C100.715 188.027 100.148 188.41 99.6641 188.895C99.1797 189.371 98.7969 189.938 98.5156 190.594C98.2344 191.242 98.0938 191.934 98.0938 192.668C98.0938 193.402 98.2344 194.094 98.5156 194.742C98.7969 195.383 99.1797 195.945 99.6641 196.43C100.148 196.914 100.715 197.297 101.363 197.578C102.012 197.859 102.707 198 103.449 198C104.184 198 104.887 197.859 105.559 197.578C106.23 197.289 106.812 196.879 107.305 196.348L109.086 199.277ZM122.562 201H111.043V184.195H122.562V187.559H114.406V190.922H119.926V194.285H114.406V197.637H122.562V201ZM128.281 201H124.918V184.195H128.281V201ZM138.465 201H135.113V187.559H130.062V184.195H143.504V187.559H138.465V201ZM154.66 194.285V190.922C154.66 190.461 154.57 190.027 154.391 189.621C154.219 189.207 153.98 188.848 153.676 188.543C153.371 188.238 153.012 188 152.598 187.828C152.191 187.648 151.758 187.559 151.297 187.559C150.836 187.559 150.398 187.648 149.984 187.828C149.578 188 149.223 188.238 148.918 188.543C148.613 188.848 148.371 189.207 148.191 189.621C148.02 190.027 147.934 190.461 147.934 190.922V194.285H154.66ZM158.023 201H154.66V197.637H147.934V201H144.582V190.922C144.582 189.992 144.758 189.121 145.109 188.309C145.461 187.488 145.938 186.773 146.539 186.164C147.148 185.555 147.859 185.074 148.672 184.723C149.492 184.371 150.367 184.195 151.297 184.195C152.227 184.195 153.098 184.371 153.91 184.723C154.73 185.074 155.445 185.555 156.055 186.164C156.664 186.773 157.145 187.488 157.496 188.309C157.848 189.121 158.023 189.992 158.023 190.922V201ZM159.957 189.234C159.957 188.539 160.09 187.887 160.355 187.277C160.621 186.668 160.98 186.137 161.434 185.684C161.895 185.223 162.43 184.859 163.039 184.594C163.648 184.328 164.301 184.195 164.996 184.195H172.707V187.559H164.996C164.762 187.559 164.543 187.602 164.34 187.688C164.137 187.773 163.957 187.895 163.801 188.051C163.652 188.199 163.535 188.375 163.449 188.578C163.363 188.781 163.32 189 163.32 189.234C163.32 189.469 163.363 189.691 163.449 189.902C163.535 190.105 163.652 190.285 163.801 190.441C163.957 190.59 164.137 190.707 164.34 190.793C164.543 190.879 164.762 190.922 164.996 190.922H168.359C169.055 190.922 169.707 191.055 170.316 191.32C170.934 191.578 171.469 191.938 171.922 192.398C172.383 192.852 172.742 193.387 173 194.004C173.266 194.613 173.398 195.266 173.398 195.961C173.398 196.656 173.266 197.309 173 197.918C172.742 198.527 172.383 199.062 171.922 199.523C171.469 199.977 170.934 200.336 170.316 200.602C169.707 200.867 169.055 201 168.359 201H160.895V197.637H168.359C168.594 197.637 168.812 197.594 169.016 197.508C169.219 197.422 169.395 197.305 169.543 197.156C169.699 197 169.82 196.82 169.906 196.617C169.992 196.414 170.035 196.195 170.035 195.961C170.035 195.727 169.992 195.508 169.906 195.305C169.82 195.102 169.699 194.926 169.543 194.777C169.395 194.621 169.219 194.5 169.016 194.414C168.812 194.328 168.594 194.285 168.359 194.285H164.996C164.301 194.285 163.648 194.152 163.039 193.887C162.43 193.621 161.895 193.262 161.434 192.809C160.98 192.348 160.621 191.812 160.355 191.203C160.09 190.586 159.957 189.93 159.957 189.234Z" fill="#2F3645"/>
</svg>
